<svg width="0" height="0" class="hidden">
    <symbol xmlns="http://www.w3.org/2000/svg" viewBox="0 0 24 24" id="subs">
        <path d="M20.38 8.53c.16-.4.68-1.99-.17-4.14 0 0-1.31-.39-4.3 1.61-1.25-.33-2.58-.38-3.91-.38-1.32 0-2.66.05-3.91.38-2.99-2.03-4.3-1.61-4.3-1.61-.85 2.15-.33 3.74-.16 4.14C2.61 9.62 2 11 2 12.72c0 6.44 4.16 7.89 10 7.89 5.79 0 10-1.45 10-7.89 0-1.72-.61-3.1-1.62-4.19M12 19.38c-4.12 0-7.47-.19-7.47-4.19 0-.95.47-1.85 1.27-2.58 1.34-1.23 3.63-.58 6.2-.58 2.59 0 4.85-.65 6.2.58.8.73 1.3 1.62 1.3 2.58 0 3.99-3.37 4.19-7.5 4.19m-3.14-6.26c-.82 0-1.5 1-1.5 2.22 0 1.23.68 2.24 1.5 2.24.83 0 1.5-1 1.5-2.24 0-1.23-.67-2.22-1.5-2.22m6.28 0c-.83 0-1.5.99-1.5 2.22 0 1.24.67 2.24 1.5 2.24.82 0 1.5-1 1.5-2.24 0-1.23-.64-2.22-1.5-2.22z"></path>
    </symbol>
    <symbol xmlns="http://www.w3.org/2000/svg" viewBox="0 0 24 24" id="git-face">
        <path d="M12 3c4.97 0 9 3.58 9 8s-6 10-9 10-9-5.58-9-10 4.03-8 9-8m-1.69 7.93C9.29 9.29 7.47 8.58 6.25 9.34c-1.22.76-1.38 2.71-.36 4.35 1.03 1.64 2.85 2.35 4.07 1.59 1.22-.78 1.37-2.71.35-4.35m3.38 0c-1.02 1.64-.87 3.57.35 4.35 1.22.76 3.04.05 4.07-1.59 1.02-1.64.86-3.59-.36-4.35-1.22-.76-3.04-.05-4.06 1.59M12 17.75c-2 0-2.5-.75-2.5-.75 0 .03.5 2 2.5 2s2.5-2 2.5-2-.5.75-2.5.75z"></path>
    </symbol>
    <symbol xmlns="http://www.w3.org/2000/svg" viewBox="0 0 24 24" id="branch">
        <path d="M13 14c-3.36 0-4.46 1.35-4.82 2.24A3.002 3.002 0 017 22c-1.66 0-3-1.34-3-3 0-1.31.83-2.42 2-2.83V7.83A2.99 2.99 0 014 5c0-1.66 1.34-3 3-3s3 1.34 3 3c0 1.31-.83 2.42-2 2.83v5.29c.88-.65 2.16-1.12 4-1.12 2.67 0 3.56-1.34 3.85-2.23A3.006 3.006 0 0114 7c0-1.66 1.34-3 3-3s3 1.34 3 3c0 1.34-.88 2.5-2.09 2.86C17.65 11.29 16.68 14 13 14m-6 4c-.55 0-1 .45-1 1s.45 1 1 1 1-.45 1-1-.45-1-1-1M7 4c-.55 0-1 .45-1 1s.45 1 1 1 1-.45 1-1-.45-1-1-1m10 2c-.55 0-1 .45-1 1s.45 1 1 1 1-.45 1-1-.45-1-1-1m0 8v3h-3v2h3v3h2v-3h3v-2h-3v-3h-2z"></path>
    </symbol>
    <symbol xmlns="http://www.w3.org/2000/svg" viewBox="0 0 24 24" id="repo">
        <path d="M6 2h12a2 2 0 012 2v16a2 2 0 01-2 2H6a2 2 0 01-2-2V4a2 2 0 012-2m6.75 11.5c2.75 0 3.49-2.03 3.68-3.1.91-.29 1.57-1.14 1.57-2.15C18 7 17 6 15.75 6S13.5 7 13.5 8.25c0 .94.57 1.75 1.39 2.08C14.67 11 14 12 12 12c-1.38 0-2.34.35-3 .84V8.87c.87-.31 1.5-1.14 1.5-2.12 0-1.25-1-2.25-2.25-2.25S6 5.5 6 6.75c0 .98.63 1.81 1.5 2.12v6.26c-.87.31-1.5 1.14-1.5 2.12 0 1.25 1 2.25 2.25 2.25s2.25-1 2.25-2.25c0-.93-.56-1.75-1.37-2.07.28-.68 1.1-1.68 3.62-1.68m-4.5 3a.75.75 0 01.75.75.75.75 0 01-.75.75.75.75 0 01-.75-.75.75.75 0 01.75-.75m0-10.5a.75.75 0 01.75.75.75.75 0 01-.75.75.75.75 0 01-.75-.75.75.75 0 01.75-.75m7.5 1.5a.75.75 0 01.75.75.75.75 0 01-.75.75.75.75 0 01-.75-.75.75.75 0 01.75-.75z"></path>
    </symbol>
    <symbol xmlns="http://www.w3.org/2000/svg" viewBox="0 0 24 24" id="fork">
        <path d="M6 2a3 3 0 013 3c0 1.28-.81 2.38-1.94 2.81.09.46.33 1.02.94 1.82 1 1.29 3 3.2 4 4.54 1-1.34 3-3.25 4-4.54.61-.8.85-1.36.94-1.82A3.015 3.015 0 0115 5a3 3 0 013-3 3 3 0 013 3c0 1.32-.86 2.45-2.05 2.85-.08.52-.31 1.15-.95 1.98-1 1.34-3 3.25-4 4.55-.61.79-.85 1.35-.94 1.81C14.19 16.62 15 17.72 15 19a3 3 0 01-3 3 3 3 0 01-3-3c0-1.28.81-2.38 1.94-2.81-.09-.46-.33-1.02-.94-1.81-1-1.3-3-3.21-4-4.55-.64-.83-.87-1.46-.95-1.98A3.015 3.015 0 013 5a3 3 0 013-3m0 2a1 1 0 00-1 1 1 1 0 001 1 1 1 0 001-1 1 1 0 00-1-1m12 0a1 1 0 00-1 1 1 1 0 001 1 1 1 0 001-1 1 1 0 00-1-1m-6 14a1 1 0 00-1 1 1 1 0 001 1 1 1 0 001-1 1 1 0 00-1-1z"></path>
    </symbol>
    <symbol xmlns="http://www.w3.org/2000/svg" viewBox="0 0 477.534 477.534" id="following">
        <path d="M438.482 58.61a130.815 130.815 0 00-95.573-41.711 130.968 130.968 0 00-95.676 41.694l-8.431 8.909-8.431-8.909C181.284 5.762 98.662 2.728 45.832 51.815a130.901 130.901 0 00-6.778 6.778c-52.072 56.166-52.072 142.968 0 199.134l187.358 197.581c6.482 6.843 17.284 7.136 24.127.654.224-.212.442-.43.654-.654l187.29-197.581c52.068-56.16 52.068-142.957-.001-199.117zm-24.695 175.616h-.017L238.802 418.768 63.818 234.226c-39.78-42.916-39.78-109.233 0-152.149 36.125-39.154 97.152-41.609 136.306-5.484a96.482 96.482 0 015.484 5.484l20.804 21.948c6.856 6.812 17.925 6.812 24.781 0l20.804-21.931c36.125-39.154 97.152-41.609 136.306-5.484a96.482 96.482 0 015.484 5.484c40.126 42.984 40.42 109.422 0 152.132z"></path>
    </symbol>
    <symbol xmlns="http://www.w3.org/2000/svg" viewBox="0 0 469.333 469.333" id="watchers">
        <path d="M234.667 170.667c-35.307 0-64 28.693-64 64s28.693 64 64 64 64-28.693 64-64-28.694-64-64-64z"></path>
        <path d="M234.667 74.667C128 74.667 36.907 141.013 0 234.667c36.907 93.653 128 160 234.667 160 106.773 0 197.76-66.347 234.667-160-36.907-93.654-127.894-160-234.667-160zm0 266.666c-58.88 0-106.667-47.787-106.667-106.667S175.787 128 234.667 128s106.667 47.787 106.667 106.667-47.787 106.666-106.667 106.666z"></path>
    </symbol>
    <symbol xmlns="http://www.w3.org/2000/svg" viewBox="0 0 512 512" id="size">
        <path d="M472 111v143.716L369.754 152.47l-28.285 28.284L395.716 235h-279.82l54.247-54.246-28.286-28.284L40 254.327V111H0v290h40V255.673L141.857 357.53l28.286-28.284L115.896 275h279.82l-54.247 54.246 28.285 28.284L472 255.284V401h40V111z"></path>
    </symbol>
</svg>